<svg xmlns="http://www.w3.org/2000/svg" viewBox="0 0 1600 1100" font-family="'Segoe UI', Arial, sans-serif">
  <defs>
    <!-- Shadows -->
    <filter id="shadow" x="-2%" y="-2%" width="104%" height="108%">
      <feDropShadow dx="0" dy="2" stdDeviation="4" flood-color="#1B2A4A" flood-opacity="0.08"/>
    </filter>
    <filter id="shadowStrong" x="-2%" y="-2%" width="104%" height="110%">
      <feDropShadow dx="0" dy="3" stdDeviation="6" flood-color="#1B2A4A" flood-opacity="0.12"/>
    </filter>
    <!-- Gradients -->
    <linearGradient id="bgGrad" x1="0" y1="0" x2="0" y2="1">
      <stop offset="0%" stop-color="#F0F4F8"/>
      <stop offset="100%" stop-color="#E2E8F0"/>
    </linearGradient>
    <linearGradient id="intelligenceGrad" x1="0" y1="0" x2="0" y2="1">
      <stop offset="0%" stop-color="#EDE9FE"/>
      <stop offset="100%" stop-color="#DDD6FE"/>
    </linearGradient>
    <linearGradient id="emergencyGrad" x1="0" y1="0" x2="1" y2="0">
      <stop offset="0%" stop-color="#EF4444"/>
      <stop offset="50%" stop-color="#DC2626"/>
      <stop offset="100%" stop-color="#EF4444"/>
    </linearGradient>
    <!-- Arrow marker -->
    <marker id="arrowGray" markerWidth="8" markerHeight="6" refX="8" refY="3" orient="auto">
      <path d="M0,0 L8,3 L0,6 Z" fill="#94A3B8"/>
    </marker>
    <marker id="arrowBlue" markerWidth="8" markerHeight="6" refX="8" refY="3" orient="auto">
      <path d="M0,0 L8,3 L0,6 Z" fill="#6366F1"/>
    </marker>
    <marker id="arrowRed" markerWidth="8" markerHeight="6" refX="8" refY="3" orient="auto">
      <path d="M0,0 L8,3 L0,6 Z" fill="#DC2626"/>
    </marker>
    <marker id="arrowViolet" markerWidth="8" markerHeight="6" refX="8" refY="3" orient="auto">
      <path d="M0,0 L8,3 L0,6 Z" fill="#7C3AED"/>
    </marker>
  </defs>

  <!-- Background -->
  <rect width="1600" height="1100" fill="url(#bgGrad)" rx="0"/>

  <!-- Title -->
  <text x="800" y="42" text-anchor="middle" font-size="22" font-weight="700" fill="#1E293B" letter-spacing="0.5">AutomationOne</text>
  <text x="800" y="64" text-anchor="middle" font-size="12.5" fill="#64748B" letter-spacing="1.5">SERVER-ZENTRISCHE IoT-AUTOMATISIERUNGSPLATTFORM</text>
  <line x1="660" y1="74" x2="940" y2="74" stroke="#6366F1" stroke-width="2" stroke-opacity="0.4"/>

  <!-- ════════════════════════════════════════════ -->
  <!-- LAYER 1: WEB DASHBOARD (top) -->
  <!-- ════════════════════════════════════════════ -->
  <g filter="url(#shadow)">
    <rect x="180" y="95" width="1060" height="115" rx="10" fill="#EEF2FF" stroke="#A5B4FC" stroke-width="1.5"/>
  </g>
  <!-- Layer label -->
  <rect x="180" y="95" width="1060" height="28" rx="10" fill="#6366F1"/>
  <rect x="180" y="110" width="1060" height="13" fill="#6366F1"/>
  <text x="710" y="114" text-anchor="middle" font-size="11" font-weight="700" fill="white" letter-spacing="1">WEB-DASHBOARD</text>
  <text x="1130" y="114" text-anchor="end" font-size="9" fill="#C7D2FE">Browser-basiert · Keine Installation</text>

  <!-- Dashboard modules -->
  <g transform="translate(210, 135)">
    <rect width="145" height="55" rx="6" fill="white" stroke="#C7D2FE" stroke-width="1"/>
    <text x="72" y="22" text-anchor="middle" font-size="10" font-weight="600" fill="#4338CA">Live-Monitoring</text>
    <text x="72" y="38" text-anchor="middle" font-size="8.5" fill="#6B7280">Echtzeitdaten aller</text>
    <text x="72" y="49" text-anchor="middle" font-size="8.5" fill="#6B7280">Sensoren &amp; Aktoren</text>
  </g>
  <g transform="translate(370, 135)">
    <rect width="145" height="55" rx="6" fill="white" stroke="#C7D2FE" stroke-width="1"/>
    <text x="72" y="22" text-anchor="middle" font-size="10" font-weight="600" fill="#4338CA">Regeleditor</text>
    <text x="72" y="38" text-anchor="middle" font-size="8.5" fill="#6B7280">Visuell per Drag &amp; Drop</text>
    <text x="72" y="49" text-anchor="middle" font-size="8.5" fill="#6B7280">Keine Programmierung</text>
  </g>
  <g transform="translate(530, 135)">
    <rect width="145" height="55" rx="6" fill="white" stroke="#C7D2FE" stroke-width="1"/>
    <text x="72" y="22" text-anchor="middle" font-size="10" font-weight="600" fill="#4338CA">Zonen-Navigation</text>
    <text x="72" y="38" text-anchor="middle" font-size="8.5" fill="#6B7280">3-Ebenen-Zoom:</text>
    <text x="72" y="49" text-anchor="middle" font-size="8.5" fill="#6B7280">Übersicht → Detail</text>
  </g>
  <g transform="translate(690, 135)">
    <rect width="145" height="55" rx="6" fill="white" stroke="#C7D2FE" stroke-width="1"/>
    <text x="72" y="22" text-anchor="middle" font-size="10" font-weight="600" fill="#4338CA">Geräteverwaltung</text>
    <text x="72" y="38" text-anchor="middle" font-size="8.5" fill="#6B7280">Auto-Erkennung</text>
    <text x="72" y="49" text-anchor="middle" font-size="8.5" fill="#6B7280">Konfiguration</text>
  </g>
  <g transform="translate(850, 135)">
    <rect width="145" height="55" rx="6" fill="white" stroke="#C7D2FE" stroke-width="1"/>
    <text x="72" y="22" text-anchor="middle" font-size="10" font-weight="600" fill="#4338CA">Datenvisualisierung</text>
    <text x="72" y="38" text-anchor="middle" font-size="8.5" fill="#6B7280">Charts, Gauges</text>
    <text x="72" y="49" text-anchor="middle" font-size="8.5" fill="#6B7280">Historische Ansicht</text>
  </g>
  <g transform="translate(1010, 135)">
    <rect width="120" height="55" rx="6" fill="#FEF2F2" stroke="#FCA5A5" stroke-width="1.2"/>
    <text x="60" y="20" text-anchor="middle" font-size="18">⚡</text>
    <text x="60" y="38" text-anchor="middle" font-size="9.5" font-weight="700" fill="#DC2626">Notfall-Stopp</text>
    <text x="60" y="49" text-anchor="middle" font-size="8" fill="#DC2626">&lt; 100ms</text>
  </g>

  <!-- ════════════════════════════════════════════ -->
  <!-- LAYER 2: INTELLIGENCE CORE (center, largest) -->
  <!-- ════════════════════════════════════════════ -->
  <g filter="url(#shadowStrong)">
    <rect x="130" y="250" width="1160" height="280" rx="12" fill="url(#intelligenceGrad)" stroke="#8B5CF6" stroke-width="2"/>
  </g>
  <!-- Header bar -->
  <rect x="130" y="250" width="1160" height="32" rx="12" fill="#7C3AED"/>
  <rect x="130" y="268" width="1160" height="14" fill="#7C3AED"/>
  <text x="710" y="272" text-anchor="middle" font-size="13" font-weight="700" fill="white" letter-spacing="1.5">INTELLIGENZ-KERN  ·  EL SERVADOR</text>
  <text x="1220" y="272" text-anchor="end" font-size="9" fill="#DDD6FE">Zentrales Gehirn des Systems</text>

  <!-- Claim badge -->
  <rect x="140" y="257" width="185" height="18" rx="9" fill="#6D28D9"/>
  <text x="232" y="269" text-anchor="middle" font-size="8.5" font-weight="600" fill="#EDE9FE">Hardware-unabhängig</text>

  <!-- Sub-module A: Sensor Processing -->
  <g transform="translate(150, 295)">
    <rect width="265" height="130" rx="8" fill="white" fill-opacity="0.85" stroke="#A78BFA" stroke-width="1"/>
    <rect x="0" y="0" width="265" height="24" rx="8" fill="#8B5CF6" fill-opacity="0.15"/>
    <rect x="0" y="12" width="265" height="12" fill="#8B5CF6" fill-opacity="0.15"/>
    <text x="132" y="17" text-anchor="middle" font-size="10" font-weight="700" fill="#6D28D9">Sensorverarbeitung</text>
    <text x="15" y="42" font-size="9" fill="#4B5563">● 9 Kalibrierungsbibliotheken</text>
    <text x="15" y="57" font-size="9" fill="#4B5563">● Temperaturkompensation</text>
    <text x="15" y="72" font-size="9" fill="#4B5563">● Drift- &amp; Ausreißer-Erkennung</text>
    <text x="15" y="87" font-size="9" fill="#4B5563">● Qualitätsbewertung pro Wert</text>
    <!-- Quality badge -->
    <rect x="15" y="98" width="235" height="22" rx="4" fill="#ECFDF5" stroke="#6EE7B7" stroke-width="0.8"/>
    <text x="132" y="113" text-anchor="middle" font-size="8.5" font-weight="600" fill="#047857">Jeder Messwert: Zeitstempel + Kalibrierung + Qualitätsstufe</text>
  </g>

  <!-- Sub-module B: Rule Engine -->
  <g transform="translate(430, 295)">
    <rect width="220" height="130" rx="8" fill="white" fill-opacity="0.85" stroke="#A78BFA" stroke-width="1"/>
    <rect x="0" y="0" width="220" height="24" rx="8" fill="#8B5CF6" fill-opacity="0.15"/>
    <rect x="0" y="12" width="220" height="12" fill="#8B5CF6" fill-opacity="0.15"/>
    <text x="110" y="17" text-anchor="middle" font-size="10" font-weight="700" fill="#6D28D9">Regel-Engine</text>
    <text x="15" y="42" font-size="9" fill="#4B5563">● Schwellwerte &amp; Zeitfenster</text>
    <text x="15" y="57" font-size="9" fill="#4B5563">● Hysterese (Anti-Flattern)</text>
    <text x="15" y="72" font-size="9" fill="#4B5563">● UND/ODER-Kombinationen</text>
    <text x="15" y="87" font-size="9" fill="#4B5563">● Geräteübergreifend</text>
    <text x="15" y="102" font-size="9" fill="#4B5563">● Verkettete Aktionen</text>
    <text x="15" y="117" font-size="9" fill="#4B5563">● Ausführungs-Historie</text>
  </g>

  <!-- Sub-module C: Safety Core -->
  <g transform="translate(665, 295)">
    <rect width="220" height="130" rx="8" fill="#FFF7ED" fill-opacity="0.9" stroke="#F97316" stroke-width="1.2"/>
    <rect x="0" y="0" width="220" height="24" rx="8" fill="#F97316" fill-opacity="0.15"/>
    <rect x="0" y="12" width="220" height="12" fill="#F97316" fill-opacity="0.15"/>
    <text x="110" y="17" text-anchor="middle" font-size="10" font-weight="700" fill="#C2410C">Sicherheitskern</text>
    <text x="15" y="42" font-size="9" fill="#4B5563">● Konflikt-Manager</text>
    <text x="15" y="57" font-size="9" fill="#4B5563">● Rate-Limiter</text>
    <text x="15" y="72" font-size="9" fill="#4B5563">● Endlos-Loop-Detektor</text>
    <text x="15" y="87" font-size="9" fill="#4B5563">● Laufzeitschutz (Pumpen)</text>
    <!-- Emergency badge -->
    <rect x="15" y="100" width="190" height="20" rx="4" fill="#FEF2F2" stroke="#FCA5A5" stroke-width="0.8"/>
    <text x="110" y="114" text-anchor="middle" font-size="8.5" font-weight="700" fill="#DC2626">⚡ Notfall-Stopp &lt; 100ms</text>
  </g>

  <!-- Sub-module D: AI Preparation -->
  <g transform="translate(900, 295)">
    <rect width="195" height="130" rx="8" fill="white" fill-opacity="0.85" stroke="#A78BFA" stroke-width="1" stroke-dasharray="4,3"/>
    <rect x="0" y="0" width="195" height="24" rx="8" fill="#8B5CF6" fill-opacity="0.1"/>
    <rect x="0" y="12" width="195" height="12" fill="#8B5CF6" fill-opacity="0.1"/>
    <text x="97" y="17" text-anchor="middle" font-size="10" font-weight="700" fill="#6D28D9">KI-Vorbereitung</text>
    <text x="15" y="42" font-size="9" fill="#4B5563">● Zeitreihen-Analyse</text>
    <text x="15" y="57" font-size="9" fill="#4B5563">● Vorhersage-Tabelle</text>
    <text x="15" y="72" font-size="9" fill="#4B5563">● Anomalie-Erkennung</text>
    <text x="15" y="87" font-size="9" fill="#4B5563">● Korrelations-IDs</text>
    <!-- Status badge -->
    <rect x="15" y="100" width="165" height="20" rx="4" fill="#EDE9FE" stroke="#C4B5FD" stroke-width="0.8"/>
    <text x="97" y="114" text-anchor="middle" font-size="8.5" fill="#6D28D9">Infrastruktur bereit</text>
  </g>

  <!-- KPI bar inside intelligence -->
  <g transform="translate(150, 432)">
    <rect width="1120" height="28" rx="5" fill="#7C3AED" fill-opacity="0.08"/>
    <text x="15" y="19" font-size="9" font-weight="600" fill="#6D28D9">140+ Schnittstellen</text>
    <text x="210" y="19" font-size="9" fill="#7C3AED">|</text>
    <text x="230" y="19" font-size="9" font-weight="600" fill="#6D28D9">14 MQTT-Handler</text>
    <text x="385" y="19" font-size="9" fill="#7C3AED">|</text>
    <text x="405" y="19" font-size="9" font-weight="600" fill="#6D28D9">23 Echtzeit-Events</text>
    <text x="575" y="19" font-size="9" fill="#7C3AED">|</text>
    <text x="595" y="19" font-size="9" font-weight="600" fill="#6D28D9">9 Sensor-Libraries</text>
    <text x="760" y="19" font-size="9" fill="#7C3AED">|</text>
    <text x="780" y="19" font-size="9" font-weight="600" fill="#6D28D9">3 Rollen (Admin/Operator/Viewer)</text>
    <text x="1010" y="19" font-size="9" fill="#7C3AED">|</text>
    <text x="1030" y="19" font-size="9" font-weight="600" fill="#6D28D9">JWT-Auth</text>
  </g>

  <!-- ════════════════════════════════════════════ -->
  <!-- PERSISTENCE LAYER (below intelligence) -->
  <!-- ════════════════════════════════════════════ -->
  <g filter="url(#shadow)">
    <rect x="220" y="555" width="980" height="75" rx="8" fill="#FFF7ED" stroke="#FDBA74" stroke-width="1.5"/>
  </g>
  <rect x="220" y="555" width="980" height="22" rx="8" fill="#F97316" fill-opacity="0.15"/>
  <rect x="220" y="565" width="980" height="12" fill="#F97316" fill-opacity="0.15"/>
  <text x="710" y="572" text-anchor="middle" font-size="10.5" font-weight="700" fill="#9A3412" letter-spacing="0.8">DATEN &amp; PERSISTENZ  ·  POSTGRESQL</text>

  <!-- Data modules -->
  <g transform="translate(240, 585)">
    <rect width="130" height="34" rx="5" fill="white" stroke="#FDBA74" stroke-width="0.8"/>
    <text x="65" y="15" text-anchor="middle" font-size="8.5" font-weight="600" fill="#9A3412">19 Tabellen</text>
    <text x="65" y="28" text-anchor="middle" font-size="7.5" fill="#78716C">Strukturiert</text>
  </g>
  <g transform="translate(385, 585)">
    <rect width="130" height="34" rx="5" fill="white" stroke="#FDBA74" stroke-width="0.8"/>
    <text x="65" y="15" text-anchor="middle" font-size="8.5" font-weight="600" fill="#9A3412">Zeitreihen</text>
    <text x="65" y="28" text-anchor="middle" font-size="7.5" fill="#78716C">Alle Messwerte</text>
  </g>
  <g transform="translate(530, 585)">
    <rect width="130" height="34" rx="5" fill="white" stroke="#FDBA74" stroke-width="0.8"/>
    <text x="65" y="15" text-anchor="middle" font-size="8.5" font-weight="600" fill="#9A3412">Aktor-Historie</text>
    <text x="65" y="28" text-anchor="middle" font-size="7.5" fill="#78716C">Wer, wann, was</text>
  </g>
  <g transform="translate(675, 585)">
    <rect width="130" height="34" rx="5" fill="white" stroke="#FDBA74" stroke-width="0.8"/>
    <text x="65" y="15" text-anchor="middle" font-size="8.5" font-weight="600" fill="#9A3412">Audit-Trail</text>
    <text x="65" y="28" text-anchor="middle" font-size="7.5" fill="#78716C">Lückenlos</text>
  </g>
  <g transform="translate(820, 585)">
    <rect width="130" height="34" rx="5" fill="white" stroke="#FDBA74" stroke-width="0.8"/>
    <text x="65" y="15" text-anchor="middle" font-size="8.5" font-weight="600" fill="#9A3412">Geräte-Health</text>
    <text x="65" y="28" text-anchor="middle" font-size="7.5" fill="#78716C">ESP32-Metriken</text>
  </g>
  <g transform="translate(965, 585)">
    <rect width="130" height="34" rx="5" fill="white" stroke="#FDBA74" stroke-width="0.8"/>
    <text x="65" y="15" text-anchor="middle" font-size="8.5" font-weight="600" fill="#9A3412">KI-Vorhersagen</text>
    <text x="65" y="28" text-anchor="middle" font-size="7.5" fill="#78716C">Vorbereitet</text>
  </g>

  <!-- ════════════════════════════════════════════ -->
  <!-- MQTT EVENT BUS -->
  <!-- ════════════════════════════════════════════ -->
  <g filter="url(#shadow)">
    <rect x="250" y="670" width="920" height="55" rx="8" fill="#FFFBEB" stroke="#FCD34D" stroke-width="1.5"/>
  </g>
  <text x="710" y="695" text-anchor="middle" font-size="12" font-weight="700" fill="#92400E" letter-spacing="1">MQTT  NACHRICHTEN-BUS</text>
  <text x="710" y="714" text-anchor="middle" font-size="9" fill="#A16207">Echtzeit · Priorisiert · Netzwerkweiter Notfallkanal · QoS-gestuft</text>
  <!-- Protocol badge -->
  <rect x="1060" y="680" width="90" height="18" rx="9" fill="#F59E0B" fill-opacity="0.2"/>
  <text x="1105" y="693" text-anchor="middle" font-size="8" font-weight="600" fill="#92400E">MQTT-Protokoll</text>

  <!-- ════════════════════════════════════════════ -->
  <!-- EDGE DEVICES -->
  <!-- ════════════════════════════════════════════ -->
  <g filter="url(#shadow)">
    <rect x="180" y="770" width="1060" height="100" rx="10" fill="#EFF6FF" stroke="#93C5FD" stroke-width="1.5"/>
  </g>
  <rect x="180" y="770" width="1060" height="26" rx="10" fill="#3B82F6" fill-opacity="0.15"/>
  <rect x="180" y="785" width="1060" height="11" fill="#3B82F6" fill-opacity="0.15"/>
  <text x="710" y="789" text-anchor="middle" font-size="10.5" font-weight="700" fill="#1E40AF" letter-spacing="0.8">EDGE-GERÄTE  ·  ESP32 MIKROCONTROLLER  ·  ca. 5€/Stück</text>

  <!-- ESP32 nodes -->
  <g transform="translate(210, 805)">
    <rect width="150" height="52" rx="6" fill="white" stroke="#93C5FD" stroke-width="1"/>
    <text x="75" y="20" text-anchor="middle" font-size="9.5" font-weight="600" fill="#1E40AF">ESP32 Node</text>
    <text x="75" y="35" text-anchor="middle" font-size="8" fill="#6B7280">Sensor-Auslese</text>
    <text x="75" y="47" text-anchor="middle" font-size="8" fill="#6B7280">Aktor-Steuerung</text>
  </g>
  <g transform="translate(380, 805)">
    <rect width="150" height="52" rx="6" fill="white" stroke="#93C5FD" stroke-width="1"/>
    <text x="75" y="20" text-anchor="middle" font-size="9.5" font-weight="600" fill="#1E40AF">ESP32 Node</text>
    <text x="75" y="35" text-anchor="middle" font-size="8" fill="#6B7280">Sensor-Auslese</text>
    <text x="75" y="47" text-anchor="middle" font-size="8" fill="#6B7280">Aktor-Steuerung</text>
  </g>
  <g transform="translate(550, 805)">
    <rect width="150" height="52" rx="6" fill="white" stroke="#93C5FD" stroke-width="1"/>
    <text x="75" y="20" text-anchor="middle" font-size="9.5" font-weight="600" fill="#1E40AF">ESP32 Node</text>
    <text x="75" y="35" text-anchor="middle" font-size="8" fill="#6B7280">Sensor-Auslese</text>
    <text x="75" y="47" text-anchor="middle" font-size="8" fill="#6B7280">Aktor-Steuerung</text>
  </g>
  <!-- Ellipsis node -->
  <g transform="translate(720, 805)">
    <rect width="60" height="52" rx="6" fill="white" stroke="#93C5FD" stroke-width="1" stroke-dasharray="4,3"/>
    <text x="30" y="32" text-anchor="middle" font-size="16" fill="#93C5FD">···</text>
  </g>
  <!-- Features -->
  <g transform="translate(810, 805)">
    <rect width="200" height="52" rx="6" fill="#DBEAFE" stroke="#93C5FD" stroke-width="0.8"/>
    <text x="100" y="16" text-anchor="middle" font-size="8.5" font-weight="600" fill="#1E40AF">Eingebaute Sicherheit:</text>
    <text x="100" y="30" text-anchor="middle" font-size="8" fill="#3B82F6">GPIO Safe-Mode bei Neustart</text>
    <text x="100" y="42" text-anchor="middle" font-size="8" fill="#3B82F6">Watchdog · Boot-Loop-Schutz</text>
  </g>
  <g transform="translate(1030, 805)">
    <rect width="185" height="52" rx="6" fill="#DBEAFE" stroke="#93C5FD" stroke-width="0.8"/>
    <text x="92" y="16" text-anchor="middle" font-size="8.5" font-weight="600" fill="#1E40AF">Zero-Touch Setup:</text>
    <text x="92" y="30" text-anchor="middle" font-size="8" fill="#3B82F6">WLAN-Portal zur Einrichtung</text>
    <text x="92" y="42" text-anchor="middle" font-size="8" fill="#3B82F6">Automatische Registrierung</text>
  </g>

  <!-- ════════════════════════════════════════════ -->
  <!-- PHYSICAL WORLD (bottom) -->
  <!-- ════════════════════════════════════════════ -->
  <g filter="url(#shadow)">
    <rect x="180" y="910" width="1060" height="78" rx="10" fill="#ECFDF5" stroke="#86EFAC" stroke-width="1.5"/>
  </g>
  <rect x="180" y="910" width="1060" height="22" rx="10" fill="#10B981" fill-opacity="0.12"/>
  <rect x="180" y="922" width="1060" height="10" fill="#10B981" fill-opacity="0.12"/>
  <text x="710" y="927" text-anchor="middle" font-size="10" font-weight="700" fill="#065F46" letter-spacing="0.8">PHYSISCHE WELT  ·  SENSOREN &amp; AKTOREN</text>

  <!-- Sensor icons -->
  <g transform="translate(200, 940)">
    <rect width="72" height="36" rx="4" fill="white" stroke="#6EE7B7" stroke-width="0.8"/>
    <text x="36" y="15" text-anchor="middle" font-size="13">🌡</text>
    <text x="36" y="30" text-anchor="middle" font-size="7" fill="#065F46">Temperatur</text>
  </g>
  <g transform="translate(282, 940)">
    <rect width="60" height="36" rx="4" fill="white" stroke="#6EE7B7" stroke-width="0.8"/>
    <text x="30" y="15" text-anchor="middle" font-size="13">💧</text>
    <text x="30" y="30" text-anchor="middle" font-size="7" fill="#065F46">pH</text>
  </g>
  <g transform="translate(352, 940)">
    <rect width="60" height="36" rx="4" fill="white" stroke="#6EE7B7" stroke-width="0.8"/>
    <text x="30" y="15" text-anchor="middle" font-size="13">⚡</text>
    <text x="30" y="30" text-anchor="middle" font-size="7" fill="#065F46">EC</text>
  </g>
  <g transform="translate(422, 940)">
    <rect width="60" height="36" rx="4" fill="white" stroke="#6EE7B7" stroke-width="0.8"/>
    <text x="30" y="15" text-anchor="middle" font-size="12">☁️</text>
    <text x="30" y="30" text-anchor="middle" font-size="7" fill="#065F46">CO₂</text>
  </g>
  <g transform="translate(492, 940)">
    <rect width="72" height="36" rx="4" fill="white" stroke="#6EE7B7" stroke-width="0.8"/>
    <text x="36" y="15" text-anchor="middle" font-size="13">🌱</text>
    <text x="36" y="30" text-anchor="middle" font-size="7" fill="#065F46">Bodenfeuchte</text>
  </g>
  <g transform="translate(574, 940)">
    <rect width="60" height="36" rx="4" fill="white" stroke="#6EE7B7" stroke-width="0.8"/>
    <text x="30" y="15" text-anchor="middle" font-size="13">☀️</text>
    <text x="30" y="30" text-anchor="middle" font-size="7" fill="#065F46">Licht</text>
  </g>
  <g transform="translate(644, 940)">
    <rect width="72" height="36" rx="4" fill="white" stroke="#6EE7B7" stroke-width="0.8"/>
    <text x="36" y="15" text-anchor="middle" font-size="12">💨</text>
    <text x="36" y="30" text-anchor="middle" font-size="7" fill="#065F46">Luftfeuchte</text>
  </g>
  <g transform="translate(726, 940)">
    <rect width="72" height="36" rx="4" fill="white" stroke="#6EE7B7" stroke-width="0.8"/>
    <text x="36" y="15" text-anchor="middle" font-size="12">🌊</text>
    <text x="36" y="30" text-anchor="middle" font-size="7" fill="#065F46">Durchfluss</text>
  </g>
  <!-- Separator -->
  <line x1="818" y1="944" x2="818" y2="972" stroke="#86EFAC" stroke-width="1.5" stroke-dasharray="3,3"/>
  <!-- Actuators -->
  <g transform="translate(840, 940)">
    <rect width="72" height="36" rx="4" fill="#FFF7ED" stroke="#FDBA74" stroke-width="0.8"/>
    <text x="36" y="15" text-anchor="middle" font-size="12">💧</text>
    <text x="36" y="30" text-anchor="middle" font-size="7" fill="#9A3412">Pumpen</text>
  </g>
  <g transform="translate(922, 940)">
    <rect width="72" height="36" rx="4" fill="#FFF7ED" stroke="#FDBA74" stroke-width="0.8"/>
    <text x="36" y="15" text-anchor="middle" font-size="12">🔧</text>
    <text x="36" y="30" text-anchor="middle" font-size="7" fill="#9A3412">Ventile</text>
  </g>
  <g transform="translate(1004, 940)">
    <rect width="72" height="36" rx="4" fill="#FFF7ED" stroke="#FDBA74" stroke-width="0.8"/>
    <text x="36" y="15" text-anchor="middle" font-size="12">🌀</text>
    <text x="36" y="30" text-anchor="middle" font-size="7" fill="#9A3412">Lüfter</text>
  </g>
  <g transform="translate(1086, 940)">
    <rect width="72" height="36" rx="4" fill="#FFF7ED" stroke="#FDBA74" stroke-width="0.8"/>
    <text x="36" y="15" text-anchor="middle" font-size="12">💡</text>
    <text x="36" y="30" text-anchor="middle" font-size="7" fill="#9A3412">Beleuchtung</text>
  </g>
  <g transform="translate(1168, 940)">
    <rect width="60" height="36" rx="4" fill="#FFF7ED" stroke="#FDBA74" stroke-width="0.8"/>
    <text x="30" y="15" text-anchor="middle" font-size="12">🔌</text>
    <text x="30" y="30" text-anchor="middle" font-size="7" fill="#9A3412">Relays</text>
  </g>

  <!-- ════════════════════════════════════════════ -->
  <!-- MONITORING SIDEBAR (right) -->
  <!-- ════════════════════════════════════════════ -->
  <g filter="url(#shadow)">
    <rect x="1320" y="250" width="175" height="380" rx="10" fill="#FEF2F2" stroke="#FCA5A5" stroke-width="1.5"/>
  </g>
  <rect x="1320" y="250" width="175" height="26" rx="10" fill="#EF4444" fill-opacity="0.15"/>
  <rect x="1320" y="265" width="175" height="11" fill="#EF4444" fill-opacity="0.15"/>
  <text x="1407" y="268" text-anchor="middle" font-size="9" font-weight="700" fill="#991B1B" letter-spacing="0.5">ÜBERWACHUNG</text>

  <g transform="translate(1335, 288)">
    <rect width="145" height="32" rx="5" fill="white" stroke="#FCA5A5" stroke-width="0.8"/>
    <text x="72" y="14" text-anchor="middle" font-size="9" font-weight="600" fill="#991B1B">Grafana</text>
    <text x="72" y="26" text-anchor="middle" font-size="7.5" fill="#6B7280">26 Dashboard-Panels</text>
  </g>
  <g transform="translate(1335, 328)">
    <rect width="145" height="32" rx="5" fill="white" stroke="#FCA5A5" stroke-width="0.8"/>
    <text x="72" y="14" text-anchor="middle" font-size="9" font-weight="600" fill="#991B1B">Prometheus</text>
    <text x="72" y="26" text-anchor="middle" font-size="7.5" fill="#6B7280">18 Custom-Metriken</text>
  </g>
  <g transform="translate(1335, 368)">
    <rect width="145" height="32" rx="5" fill="white" stroke="#FCA5A5" stroke-width="0.8"/>
    <text x="72" y="14" text-anchor="middle" font-size="9" font-weight="600" fill="#991B1B">Loki</text>
    <text x="72" y="26" text-anchor="middle" font-size="7.5" fill="#6B7280">Log-Aggregation</text>
  </g>
  <g transform="translate(1335, 408)">
    <rect width="145" height="32" rx="5" fill="white" stroke="#FCA5A5" stroke-width="0.8"/>
    <text x="72" y="14" text-anchor="middle" font-size="9" font-weight="600" fill="#991B1B">Alarmierung</text>
    <text x="72" y="26" text-anchor="middle" font-size="7.5" fill="#6B7280">8 automatische Regeln</text>
  </g>
  <g transform="translate(1335, 448)">
    <rect width="145" height="32" rx="5" fill="white" stroke="#FCA5A5" stroke-width="0.8"/>
    <text x="72" y="14" text-anchor="middle" font-size="9" font-weight="600" fill="#991B1B">CI/CD</text>
    <text x="72" y="26" text-anchor="middle" font-size="7.5" fill="#6B7280">8 Pipelines</text>
  </g>
  <!-- Test count badge -->
  <g transform="translate(1335, 496)">
    <rect width="145" height="42" rx="6" fill="#FEF2F2" stroke="#DC2626" stroke-width="1"/>
    <text x="72" y="18" text-anchor="middle" font-size="11" font-weight="700" fill="#DC2626">2.100+</text>
    <text x="72" y="34" text-anchor="middle" font-size="8" fill="#991B1B">Automatisierte Tests</text>
  </g>
  <!-- Monitoring connection line -->
  <text x="1407" y="558" text-anchor="middle" font-size="8" fill="#DC2626">Überwacht das</text>
  <text x="1407" y="570" text-anchor="middle" font-size="8" fill="#DC2626">gesamte System</text>

  <!-- Monitoring arrow to Intelligence -->
  <line x1="1320" y1="390" x2="1295" y2="390" stroke="#FCA5A5" stroke-width="1.5" marker-end="url(#arrowRed)" stroke-dasharray="4,3"/>

  <!-- ════════════════════════════════════════════ -->
  <!-- CONNECTION ARROWS -->
  <!-- ════════════════════════════════════════════ -->

  <!-- Dashboard ↔ Intelligence -->
  <line x1="710" y1="210" x2="710" y2="250" stroke="#6366F1" stroke-width="2" marker-end="url(#arrowViolet)"/>
  <text x="722" y="234" font-size="7.5" fill="#6366F1">REST + WebSocket</text>

  <!-- Intelligence ↔ Data -->
  <line x1="710" y1="530" x2="710" y2="555" stroke="#94A3B8" stroke-width="1.5" marker-end="url(#arrowGray)"/>

  <!-- Data ↔ MQTT (via Intelligence) -->
  <line x1="710" y1="630" x2="710" y2="670" stroke="#94A3B8" stroke-width="1.5" marker-end="url(#arrowGray)"/>

  <!-- MQTT ↔ Edge -->
  <line x1="710" y1="725" x2="710" y2="770" stroke="#94A3B8" stroke-width="1.5" marker-end="url(#arrowGray)"/>
  <text x="722" y="752" font-size="7.5" fill="#92400E">WLAN</text>

  <!-- Edge ↔ Physical -->
  <line x1="710" y1="870" x2="710" y2="910" stroke="#94A3B8" stroke-width="1.5" marker-end="url(#arrowGray)"/>

  <!-- Bidirectional arrows for Actuator commands (right side) -->
  <line x1="1170" y1="460" x2="1170" y2="695" stroke="#7C3AED" stroke-width="1.2" stroke-dasharray="6,3"/>
  <text x="1182" y="580" font-size="7" fill="#7C3AED" transform="rotate(90,1182,580)">Aktor-Befehle</text>
  <line x1="1170" y1="460" x2="1170" y2="450" stroke="#7C3AED" stroke-width="1.2" marker-end="url(#arrowViolet)"/>

  <!-- Sensor data flow (left side) -->
  <line x1="250" y1="910" x2="250" y2="695" stroke="#10B981" stroke-width="1.2" stroke-dasharray="6,3"/>
  <text x="238" y="800" font-size="7" fill="#047857" transform="rotate(-90,238,800)">Sensordaten aufwärts</text>
  <line x1="250" y1="700" x2="250" y2="695" stroke="#10B981" stroke-width="1.2" marker-end="url(#arrowGray)"/>

  <!-- ════════════════════════════════════════════ -->
  <!-- EMERGENCY PATH (red dashed) -->
  <!-- ════════════════════════════════════════════ -->
  <path d="M 1070 190 L 1120 190 L 1120 460 L 1160 697 L 1160 830"
        stroke="#DC2626" stroke-width="2" fill="none" stroke-dasharray="8,4" marker-end="url(#arrowRed)"/>
  <rect x="1122" y="220" width="80" height="16" rx="3" fill="#DC2626"/>
  <text x="1162" y="231" text-anchor="middle" font-size="7.5" font-weight="600" fill="white">NOTFALL</text>

  <!-- ════════════════════════════════════════════ -->
  <!-- LEFT SIDE: Design Principles -->
  <!-- ════════════════════════════════════════════ -->
  <g transform="translate(15, 310)">
    <text x="0" y="0" font-size="8" font-weight="700" fill="#64748B" letter-spacing="1">DESIGN-</text>
    <text x="0" y="12" font-size="8" font-weight="700" fill="#64748B" letter-spacing="1">PRINZIPIEN</text>
    <line x1="0" y1="18" x2="90" y2="18" stroke="#CBD5E1" stroke-width="0.8"/>

    <text x="0" y="40" font-size="8" font-weight="600" fill="#1E293B">Server-zentrisch</text>
    <text x="0" y="52" font-size="7" fill="#64748B">Intelligenz auf dem</text>
    <text x="0" y="62" font-size="7" fill="#64748B">Server, nicht im Gerät</text>

    <text x="0" y="86" font-size="8" font-weight="600" fill="#1E293B">Hardware-günstig</text>
    <text x="0" y="98" font-size="7" fill="#64748B">ESP32 ab ca. 5€</text>
    <text x="0" y="108" font-size="7" fill="#64748B">Beliebig skalierbar</text>

    <text x="0" y="132" font-size="8" font-weight="600" fill="#1E293B">Lokal &amp; unabhängig</text>
    <text x="0" y="144" font-size="7" fill="#64748B">Keine Cloud nötig</text>
    <text x="0" y="154" font-size="7" fill="#64748B">Daten bleiben intern</text>

    <text x="0" y="178" font-size="8" font-weight="600" fill="#1E293B">Safety-First</text>
    <text x="0" y="190" font-size="7" fill="#64748B">Mehrschichtige</text>
    <text x="0" y="200" font-size="7" fill="#64748B">Absicherung</text>

    <text x="0" y="224" font-size="8" font-weight="600" fill="#1E293B">KI-ready</text>
    <text x="0" y="236" font-size="7" fill="#64748B">Infrastruktur für</text>
    <text x="0" y="246" font-size="7" fill="#64748B">maschinelles Lernen</text>
  </g>

  <!-- ════════════════════════════════════════════ -->
  <!-- FOOTER -->
  <!-- ════════════════════════════════════════════ -->
  <line x1="100" y1="1060" x2="1500" y2="1060" stroke="#CBD5E1" stroke-width="0.8"/>
  <text x="100" y="1080" font-size="9" font-weight="600" fill="#475569">AutomationOne</text>
  <text x="100" y="1093" font-size="7.5" fill="#94A3B8">Server-Zentrische IoT-Automatisierungsplattform  ·  Vertraulich  ·  Februar 2026</text>

  <!-- Docker badge -->
  <rect x="1300" y="1068" width="200" height="22" rx="4" fill="#F1F5F9" stroke="#CBD5E1" stroke-width="0.8"/>
  <text x="1400" y="1083" text-anchor="middle" font-size="8" fill="#475569">13 Docker-Dienste  ·  Ein-Befehl-Start</text>

</svg>